<svg width="43" height="43" viewBox="0 0 43 43" fill="none" xmlns="http://www.w3.org/2000/svg">
<circle cx="21.2271" cy="21.0757" r="21.0757" fill="#2C2E2F" fill-opacity="0.1"/>
<path d="M25.7728 13.224H17.5079C15.2255 13.224 13.3754 15.0742 13.3754 17.3565V25.6215C13.3754 27.9038 15.2255 29.754 17.5079 29.754H25.7728C28.0552 29.754 29.9053 27.9038 29.9053 25.6215V17.3565C29.9053 15.0742 28.0552 13.224 25.7728 13.224Z" stroke="#051320" stroke-width="1.653" stroke-linecap="round" stroke-linejoin="round"/>
<path d="M24.9463 20.9683C25.0483 21.6561 24.9308 22.3586 24.6106 22.9759C24.2903 23.5931 23.7836 24.0936 23.1624 24.4062C22.5413 24.7189 21.8374 24.8277 21.1509 24.7172C20.4643 24.6067 19.8301 24.2826 19.3384 23.7909C18.8467 23.2992 18.5226 22.665 18.4121 21.9784C18.3016 21.2919 18.4104 20.588 18.7231 19.9669C19.0357 19.3457 19.5362 18.839 20.1534 18.5187C20.7707 18.1985 21.4732 18.081 22.161 18.183C22.8627 18.287 23.5122 18.614 24.0138 19.1155C24.5153 19.6171 24.8423 20.2666 24.9463 20.9683Z" stroke="#051320" stroke-width="1.653" stroke-linecap="round" stroke-linejoin="round"/>
<path d="M26.1861 16.9432H26.1947" stroke="#051320" stroke-width="1.653" stroke-linecap="round" stroke-linejoin="round"/>
</svg>
