<svg width="43" height="43" viewBox="0 0 43 43" fill="none" xmlns="http://www.w3.org/2000/svg">
<circle cx="21.3786" cy="21.0757" r="21.0757" fill="#2C2E2F" fill-opacity="0.1"/>
<path d="M24.4682 17.8C25.7413 17.8 26.9622 18.3057 27.8624 19.2059C28.7625 20.106 29.2682 21.3269 29.2682 22.6V28.2H26.0682V22.6C26.0682 22.1756 25.8997 21.7687 25.5996 21.4686C25.2996 21.1686 24.8926 21 24.4682 21C24.0439 21 23.6369 21.1686 23.3369 21.4686C23.0368 21.7687 22.8682 22.1756 22.8682 22.6V28.2H19.6682V22.6C19.6682 21.3269 20.174 20.106 21.0741 19.2059C21.9743 18.3057 23.1952 17.8 24.4682 17.8Z" stroke="black" stroke-width="1.5" stroke-linecap="round" stroke-linejoin="round"/>
<path d="M16.4682 18.6H13.2682V28.2H16.4682V18.6Z" stroke="black" stroke-width="1.5" stroke-linecap="round" stroke-linejoin="round"/>
<path d="M14.8682 16.2C15.7519 16.2 16.4682 15.4837 16.4682 14.6C16.4682 13.7163 15.7519 13 14.8682 13C13.9846 13 13.2682 13.7163 13.2682 14.6C13.2682 15.4837 13.9846 16.2 14.8682 16.2Z" stroke="black" stroke-width="1.5" stroke-linecap="round" stroke-linejoin="round"/>
</svg>
