<svg width="43" height="43" viewBox="0 0 43 43" fill="none" xmlns="http://www.w3.org/2000/svg">
<circle cx="21.5301" cy="21.0757" r="21.0757" fill="#2C2E2F" fill-opacity="0.1"/>
<path d="M23.4598 16.2206C24.1832 16.3617 24.848 16.7155 25.3691 17.2366C25.8903 17.7578 26.2441 18.4226 26.3852 19.146M23.4598 13.2581C24.9627 13.4251 26.3642 14.0981 27.4341 15.1667C28.504 16.2353 29.1788 17.6359 29.3476 19.1386M28.607 25.0486V27.2705C28.6079 27.4767 28.5656 27.6809 28.483 27.8699C28.4004 28.0589 28.2792 28.2285 28.1272 28.368C27.9752 28.5074 27.7957 28.6136 27.6004 28.6796C27.405 28.7457 27.1979 28.7703 26.9925 28.7517C24.7135 28.5041 22.5244 27.7253 20.601 26.478C18.8116 25.3409 17.2945 23.8238 16.1574 22.0344C14.9057 20.1023 14.1268 17.9025 13.8837 15.6133C13.8652 15.4085 13.8895 15.202 13.9552 15.0072C14.0208 14.8123 14.1263 14.6332 14.2649 14.4813C14.4036 14.3295 14.5723 14.2081 14.7604 14.125C14.9485 14.0419 15.1519 13.9989 15.3575 13.9987H17.5793C17.9388 13.9952 18.2872 14.1225 18.5597 14.3568C18.8323 14.5912 19.0103 14.9167 19.0606 15.2726C19.1543 15.9836 19.3283 16.6818 19.579 17.3537C19.6786 17.6188 19.7002 17.9069 19.6411 18.1838C19.5821 18.4608 19.4448 18.715 19.2457 18.9164L18.3051 19.857C19.3594 21.7111 20.8947 23.2463 22.7488 24.3006L23.6894 23.36C23.8907 23.1609 24.145 23.0237 24.4219 22.9646C24.6989 22.9056 24.987 22.9271 25.2521 23.0268C25.924 23.2775 26.6221 23.4514 27.3332 23.5452C27.6929 23.596 28.0215 23.7772 28.2564 24.0544C28.4912 24.3316 28.616 24.6854 28.607 25.0486Z" stroke="#051320" stroke-width="1.48122" stroke-linecap="round" stroke-linejoin="round"/>
</svg>
